<svg xmlns="http://www.w3.org/2000/svg" x="0px" y="0px" viewBox="0 0 1000 1000">
<g>
<g transform="translate(0.000000,642.000000) scale(0.100000,-0.100000)">
<path fill="#4e6e7d" d="M4791.6,6300.2c-59.7-10.7-137.9-32.2-176.2-49c-131.8-58.2-3699.9-2077.4-3765.8-2131.1c-96.5-78.1-193-206.8-262-347.8c-113.4-234.4-108.8-124.1-104.2-2413L488.1-686l33.7-99.6c78.1-222.1,242.1-448.9,399.9-548.5c118-75.1,3652.4-2063.7,3703-2083.6c225.2-87.3,569.9-82.7,782.9,12.3c39.8,16.9,887.1,490.3,1881.4,1052.5c1794,1014.2,1810.9,1023.4,1924.2,1138.3c81.2,81.2,133.3,150.1,179.2,237.5c130.2,252.8,119.5,35.2,124.1,2336.4c4.6,2253.6,7.7,2172.4-88.9,2386.9c-58.2,127.2-163.9,274.2-255.9,353.9c-39.8,35.2-209.9,142.5-378.4,237.5c-387.6,219.1-390.7,220.6-482.6,240.5c-271.2,58.2-677.1-191.5-934.6-576.1c-99.6-147.1-661.8-1130.6-701.7-1225.6c-62.8-151.7-85.8-281.9-85.8-474.9c1.5-317.1,78.1-524,309.5-831.9c157.8-208.4,307.9-383,548.5-634.3c124.1-131.7,183.8-208.3,222.1-283.4c47.5-98,50.6-111.8,50.6-272.7c0-157.8-3.1-174.7-49-271.2c-142.5-300.3-462.7-445.8-773.7-349.3c-183.8,56.7-314.1,171.6-399.9,350.8c-44.4,93.5-47.5,113.4-56.7,337.1c-12.3,265-30.6,335.5-130.2,482.6c-102.6,150.1-154.7,193-237.5,193c-159.3-1.5-393.7-220.6-533.2-497.9c-78.1-156.3-216-631.2-271.2-930l-24.5-134.8l55.2-111.8c142.5-289.6,91.9-617.4-130.2-839.6c-144-144-315.6-216-519.4-214.5c-324.8,0-599,203.8-694,513.2c-26,85.8-30.6,131.7-24.5,255.8c7.7,137.9,13.8,162.4,65.9,269.6c67.4,136.3,174.6,251.2,295.7,320.2c107.2,59.8,137.9,127.2,301.8,664.9c87.3,289.6,422.9,1489.2,418.3,1493.7c-3.1,3.1-84.3-159.3-180.8-361.6c-96.5-200.7-180.8-364.6-185.4-366.2c-4.6,0-16.8,16.9-26,38.3c-49,107.2-137.9,79.7-401.4-124.1c-245.1-188.4-404.5-353.9-496.4-511.7c-119.5-206.8-148.6-246.7-245.1-317.1c-292.6-216-704.7-145.5-913.1,156.3c-121,174.7-141,429-50.6,622c85.8,183.8,211.4,291.1,422.8,358.5c67.4,23,163.9,61.3,213,85.8c239,121,736.9,436.6,933,591.4c62.8,49,289.6,223.7,504,386.1s398.3,303.3,406,311c19.9,19.9-16.8,1.5-401.4-206.8l-324.8-176.2l-110.3-1.5c-107.2-1.5-370.7-35.2-501-64.3c-110.3-24.5-163.9-52.1-239-128.7c-39.8-39.8-111.9-90.4-159.3-111.8c-76.6-36.8-105.7-41.4-248.2-41.4c-153.2,0-165.5,1.5-257.4,52.1c-297.2,160.9-401.4,534.7-225.2,813.5c49,76.6,167,182.3,245.1,216c133.3,58.2,206.8,62.8,528.6,27.6c530.1-56.7,928.4-38.3,1221,56.7c334,108.8,729.2,390.7,936.1,668c87.3,116.4,626.6,1072.4,677.2,1199.6c134.8,340.1,116.4,697.1-44.4,861c-62.8,64.3-622,384.5-740,424.4C5180.8,6323.1,4983.2,6335.4,4791.6,6300.2z"/>
</g>
</g>
</svg>