<?xml version="1.0" standalone="no"?>
<!DOCTYPE svg PUBLIC "-//W3C//DTD SVG 20010904//EN"
 "http://www.w3.org/TR/2001/REC-SVG-20010904/DTD/svg10.dtd">
<svg version="1.0" xmlns="http://www.w3.org/2000/svg"
 width="256.000000pt" height="256.000000pt" viewBox="0 0 256.000000 256.000000"
 preserveAspectRatio="xMidYMid meet">

<g transform="translate(0.000000,256.000000) scale(0.100000,-0.100000)"
fill="#4b6777" stroke="none">
<path d="M10 2375 c0 -10 30 -65 36 -65 2 0 -2 14 -11 30 l-16 30 248 0 248 0
384 -660 384 -660 384 660 384 660 245 0 245 0 -13 -24 c-92 -170 -1245 -2133
-1249 -2128 -4 4 -278 471 -609 1037 -331 567 -607 1035 -613 1040 -14 13 -52
79 618 -1070 323 -556 593 -1016 600 -1023 10 -11 139 205 639 1068 345 594
629 1087 632 1095 5 13 -56 15 -484 15 l-490 0 -144 -245 c-108 -186 -145
-242 -153 -232 -6 8 -71 118 -145 245 l-135 232 -492 0 c-271 0 -493 -2 -493
-5z"/>
</g>
</svg>
